<svg width="28" height="28" viewBox="0 0 28 28" fill="none" xmlns="http://www.w3.org/2000/svg">
<path d="M27.6904 12.6621C25.6822 9.73691 21.5304 14.0419 13.9533 14.9169C11.1479 15.2405 8.62011 17.5831 5.36122 17.3599C4.025 17.2681 2.15911 13.4236 0.762218 14.0365C0.0435515 14.3522 -0.286226 15.4061 0.452663 16.1979L8.65666 25.987C8.65666 25.987 9.07355 26.4677 10.4782 26.1348C10.8243 26.2367 16.0277 24.1515 19.0361 19.9771C19.7563 18.9777 20.615 18.1455 21.504 17.4501C24.3903 15.3159 27.5279 14.5724 27.5279 14.5724C27.9292 14.241 28.0233 13.8887 28.0016 13.583C28.028 13.0728 27.6904 12.6621 27.6904 12.6621Z" fill="#5C913B"/>
<path d="M8.92581 7.99102C5.98347 12.0743 0.830697 14.0087 0.830697 14.0087C-0.130636 14.823 0.681364 15.7828 0.681364 15.7828L8.79981 25.3953C8.79981 25.3953 9.20581 25.8752 10.5731 25.5423C10.5731 25.5423 15.7259 23.6119 18.6675 19.5286C21.7 15.3208 27.1686 13.9923 27.1686 13.9923C28.1291 13.178 27.3179 12.2167 27.3179 12.2167L19.1995 2.60568C19.1995 2.60568 18.7935 2.12502 17.4261 2.45635C17.4261 2.45635 11.9584 3.78168 8.92581 7.99102Z" fill="#A7D28B"/>
<path d="M17.111 15.1669C19.4736 15.1669 21.3888 13.2517 21.3888 10.8891C21.3888 8.52655 19.4736 6.61133 17.111 6.61133C14.7485 6.61133 12.8333 8.52655 12.8333 10.8891C12.8333 13.2517 14.7485 15.1669 17.111 15.1669Z" fill="#77B255"/>
<path d="M10.0124 24.8336C9.32713 24.8336 9.07591 24.5785 9.04168 24.5396L1.72357 15.9973C1.70957 15.9809 1.33857 15.5563 1.38368 15.0165C1.41091 14.6891 1.58046 14.3974 1.88691 14.1493L1.93591 14.1197C1.98335 14.1011 6.72935 12.1504 9.38935 8.62473C12.2034 4.8945 17.0575 3.29384 17.1057 3.27828C18.4629 2.9625 18.907 3.41361 18.9545 3.4665L26.1761 12.0563C26.1893 12.0703 26.5596 12.4965 26.5145 13.0371C26.4872 13.3637 26.3177 13.6554 26.0112 13.9035L25.9342 13.9416C25.8868 13.9533 21.1672 15.1262 18.4333 18.7491C15.7119 22.3579 10.9612 24.6928 10.9138 24.7154C10.5529 24.8009 10.2558 24.8336 10.0124 24.8336ZM9.33491 24.2837C9.33568 24.2837 9.68646 24.6073 10.7855 24.3522C10.7917 24.3436 15.4591 22.0484 18.1246 18.5157C20.7978 14.9729 25.2996 13.7075 25.7989 13.5761C25.9991 13.4034 26.1085 13.2144 26.1271 13.0091C26.1598 12.6357 25.8845 12.3145 25.8821 12.3114L18.6605 3.72084C18.6589 3.72084 18.3105 3.39806 17.2107 3.65317C17.1788 3.66406 12.439 5.22895 9.70046 8.85884C7.08246 12.3285 2.51457 14.2994 2.11091 14.4689C1.90246 14.6452 1.78917 14.8384 1.77102 15.0484C1.73991 15.4186 2.01368 15.7383 2.01602 15.7414L9.33491 24.2837Z" fill="#5C913B"/>
<path d="M16.548 17.2402L16.5433 21.8602L16.9299 22.3191C17.6836 21.6316 18.4077 20.8585 19.0338 19.9889C19.6626 19.1222 20.4021 18.3415 21.2333 17.6665L20.8577 17.2192L16.548 17.2402Z" fill="#FFAC33"/>
<path d="M20.8429 17.2029L11.1161 5.68164C10.3258 6.33186 9.56672 7.0902 8.92117 7.98697C8.29039 8.86275 7.55617 9.63353 6.79395 10.3133L7.93106 11.6596L7.93028 11.6604L16.5442 21.8602C17.3332 21.1608 18.0439 20.3776 18.6636 19.5245C19.3092 18.6285 20.0675 17.871 20.8569 17.2208L20.8429 17.2029Z" fill="#FFE8B6"/>
<path d="M11.2614 17.543C10.0504 16.1087 7.48683 18.4359 6.75572 17.5702C6.40183 17.151 6.62972 16.6073 7.09483 16.2153C7.87649 15.5542 8.44038 15.9392 8.79427 15.6397C9.0455 15.4282 9.03227 15.1692 8.88294 14.9911C8.53605 14.5812 7.64938 14.7951 6.96027 15.1933L6.62505 14.7966C6.52322 14.6833 6.38126 14.614 6.22923 14.6035C6.07719 14.5929 5.92704 14.642 5.81057 14.7403C5.69409 14.8386 5.62045 14.9783 5.60523 15.1299C5.59002 15.2816 5.63443 15.4332 5.72905 15.5526L6.07594 15.9641C5.54938 16.6625 5.37049 17.5896 5.99349 18.3262C7.15705 19.7029 9.75249 17.4146 10.5692 18.3822C10.8523 18.7182 10.7729 19.3591 10.1772 19.8615C9.28427 20.6167 8.47538 20.2629 8.11216 20.5693C7.93483 20.7179 7.90294 21.001 8.09194 21.2257C8.39294 21.5812 9.35194 21.505 10.2736 20.931L10.2752 20.9356L10.6539 21.3836C10.7028 21.4451 10.7636 21.4962 10.8326 21.5338C10.9016 21.5714 10.9775 21.5948 11.0557 21.6025C11.1339 21.6103 11.2128 21.6023 11.2879 21.579C11.3629 21.5556 11.4325 21.5175 11.4925 21.4668C11.5526 21.4161 11.6018 21.3538 11.6373 21.2837C11.6729 21.2136 11.694 21.1371 11.6994 21.0587C11.7048 20.9803 11.6945 20.9016 11.6689 20.8273C11.6434 20.753 11.6032 20.6846 11.5507 20.6261L11.1719 20.1781L11.1572 20.1656C11.7786 19.405 11.9886 18.4024 11.2614 17.543Z" fill="#5C913B"/>
<path d="M25.2436 25.346L25.2654 25.3296C25.3182 25.2768 25.3595 25.2161 25.4061 25.1578C25.4388 25.1173 25.4753 25.0784 25.5057 25.0372C25.5329 24.9983 25.5555 24.9586 25.5803 24.919C26.6848 23.218 25.9615 20.334 23.7751 18.1469C21.5888 15.9598 18.7032 15.2364 17.003 16.3416C16.9626 16.3658 16.9229 16.3883 16.884 16.4163C16.8428 16.4466 16.8031 16.4832 16.7642 16.5151C16.7067 16.5625 16.646 16.603 16.5924 16.6566C16.5856 16.6639 16.5799 16.6712 16.5752 16.6784C16.5667 16.687 16.5566 16.6924 16.5472 16.7018L16.5519 16.7056C15.7741 17.5316 15.7648 18.8095 16.5472 19.5928C17.3312 20.3768 18.6084 20.3659 19.4351 19.5881L19.4437 19.5974C19.4274 19.613 19.4095 19.6231 19.3939 19.6386C18.5702 20.4623 18.5508 21.776 19.348 22.5748C20.146 23.372 21.4612 23.3525 22.2841 22.5289C22.2997 22.5133 22.3098 22.4954 22.3254 22.4791L22.3339 22.4884C21.5561 23.3144 21.546 24.5923 22.33 25.3763C23.1132 26.1588 24.3904 26.1494 25.2164 25.3716L25.221 25.3763C25.2283 25.3654 25.2358 25.3553 25.2436 25.346Z" fill="#E1E8ED"/>
<path d="M16.5488 19.624C17.2535 20.3279 18.354 20.3855 19.1699 19.827C19.5113 19.2437 19.6093 18.6891 19.6093 18.5157C17.8928 19.7959 16.3606 18.5227 16.0176 17.7612C15.8752 18.4192 16.0479 19.1223 16.5488 19.624ZM22.2258 22.6107C22.4576 22.2848 22.6372 21.9698 22.7212 21.7567C21.6285 22.7585 19.5393 22.025 18.9062 20.436C18.6278 21.1749 18.7701 22.0258 19.3503 22.606C20.1297 23.3853 21.399 23.3791 22.2258 22.6107ZM25.2233 25.4068L25.2459 25.3788C25.2542 25.3731 25.2615 25.3674 25.2677 25.3617C25.3213 25.3088 25.3626 25.2481 25.4085 25.1906C25.4419 25.1493 25.4777 25.1112 25.508 25.0692C25.536 25.0311 25.5586 24.9907 25.5835 24.951C25.634 24.8732 25.6612 24.7815 25.704 24.699C23.7378 25.5787 22.2701 24.0861 21.8587 23.3418C21.6292 24.055 21.7786 24.8538 22.3323 25.4083C23.1148 26.1916 24.3919 26.1822 25.2187 25.4037L25.2233 25.4068Z" fill="#CCD6DD"/>
<path d="M10.8546 9.7207L10.8764 9.70359C10.9301 9.6507 10.9713 9.59003 11.0172 9.53248C11.0499 9.49203 11.0856 9.45392 11.116 9.41192C11.144 9.37303 11.1665 9.33337 11.1914 9.2937C12.2959 7.5927 11.5718 4.70792 9.38543 2.52159C7.19909 0.335256 4.31432 -0.389633 2.61332 0.714812C2.57365 0.7397 2.5332 0.762256 2.49432 0.790256C2.45232 0.820589 2.4142 0.856367 2.37376 0.889034C2.3162 0.9357 2.25554 0.976145 2.20265 1.02981L2.18554 1.05159L2.15754 1.07492L2.16143 1.07881C1.38365 1.90481 1.37432 3.1827 2.15754 3.96592C2.94076 4.74914 4.21865 4.73981 5.04465 3.96203L5.0532 3.97059C5.03687 3.98537 5.01898 3.99626 5.00343 4.01181C4.17976 4.83548 4.16032 6.14914 4.95832 6.94792C5.75632 7.7467 7.07076 7.72648 7.89443 6.90281C7.90998 6.88726 7.92009 6.86937 7.93565 6.85303L7.9442 6.86159C7.16643 7.68759 7.15631 8.96548 7.94032 9.7487C8.72354 10.5319 10.0006 10.5226 10.8266 9.74403L10.8305 9.7487L10.8546 9.7207Z" fill="#E1E8ED"/>
<path d="M2.1567 3.96687C2.86137 4.67154 3.96192 4.72909 4.77781 4.16909C5.11925 3.58576 5.21648 3.03198 5.21648 2.85854C3.5007 4.13798 1.9677 2.86398 1.62548 2.10254C1.48314 2.76132 1.65581 3.46521 2.1567 3.96687ZM7.83525 6.95198C8.06625 6.62609 8.24592 6.31265 8.32914 6.09954C7.23559 7.10132 5.14648 6.36709 4.51414 4.77809C4.2357 5.51698 4.37803 6.36787 4.95748 6.94809C5.73837 7.72821 7.00848 7.72121 7.83525 6.95198ZM10.8305 9.74965C10.8388 9.74084 10.8465 9.7315 10.8538 9.72165L10.8756 9.70454C10.9293 9.65165 10.9705 9.59098 11.0164 9.53343C11.049 9.49298 11.0848 9.45487 11.1151 9.41287C11.1431 9.37398 11.1657 9.33432 11.1906 9.29465C11.2411 9.21687 11.2684 9.12432 11.3111 9.04187C9.34492 9.92154 7.87725 8.42976 7.46581 7.68543C7.23637 8.39865 7.3857 9.19743 7.93948 9.75121C8.7227 10.5344 9.99981 10.5251 10.8258 9.74654L10.8305 9.74965Z" fill="#CCD6DD"/>
</svg>
