<svg width="16" height="16" viewBox="0 0 16 16" fill="none" xmlns="http://www.w3.org/2000/svg">
<path d="M12.0189 2.01435L9.23328 6.14766C9.04281 6.43333 9.41428 6.76665 9.68094 6.53333L12.1095 4.15243C12.1809 4.09052 12.2856 4.13338 12.2856 4.23815V11.6905C12.2856 11.7905 12.1523 11.8333 12.0951 11.7619L4.11428 1.83817C3.98398 1.67779 3.81901 1.54905 3.63178 1.46161C3.44456 1.37418 3.23994 1.33035 3.03333 1.3334C2.17619 1.3334 1.33334 1.76673 1.33334 2.7572V13.2381C1.33514 13.5468 1.43729 13.8467 1.62438 14.0924C1.81146 14.3381 2.07335 14.5163 2.37056 14.6001C2.66776 14.6839 2.98416 14.6689 3.27206 14.5571C3.55996 14.4455 3.80374 14.2433 3.96666 13.9809L6.74761 9.84765C6.93808 9.56185 6.57141 9.22852 6.30474 9.46185L3.89046 11.8905C3.81903 11.9524 3.71428 11.9095 3.71428 11.8047V4.37147C3.71428 4.26671 3.84761 4.22862 3.90476 4.30004L11.8713 14.1618C12.138 14.4905 12.538 14.6666 12.9522 14.6666C13.8142 14.6666 14.6665 14.2381 14.6665 13.2429V2.76197C14.6661 2.45069 14.564 2.14809 14.3759 1.90015C14.1877 1.65223 13.9235 1.47256 13.6239 1.38847C13.3242 1.30438 13.0052 1.32048 12.7156 1.43431C12.4258 1.54815 12.1813 1.7535 12.0189 2.01912V2.01435Z" fill="white"/>
</svg>
